<?xml version="1.0" encoding="utf-8"?>
<!-- Generator: Adobe Illustrator 26.2.1, SVG Export Plug-In . SVG Version: 6.00 Build 0)  -->
<svg version="1.1" id="Слой_1" xmlns="http://www.w3.org/2000/svg" xmlns:xlink="http://www.w3.org/1999/xlink" x="0px" y="0px"
	 viewBox="93 120 400 90" style="enable-background:new 0 0 400 200;" xml:space="preserve">
<style type="text/css">
	.st0{fill:url(#SVGID_1_);}
	.st1{fill:url(#SVGID_00000056406298313374379020000001838962483929974146_);}
	.st2{fill:url(#SVGID_00000052801705965084229270000010563341672542428578_);}
	.st3{fill:url(#SVGID_00000116225411995875477040000006562120053665804426_);}
	.st4{fill:url(#SVGID_00000181802230259739006630000010713223146211941540_);}
	.st5{fill:url(#SVGID_00000153674132867705217280000001393013935520719514_);}
	.st6{fill:url(#SVGID_00000115476026234067061290000003533251812639420545_);}
	.st7{fill:url(#SVGID_00000142170322091566042710000010728290678916820901_);}
	.st8{fill:url(#SVGID_00000144303458345899347160000016399468613281414056_);}
	.st9{fill:url(#SVGID_00000029021350614229687960000007145704883862873254_);}
	.st10{fill:url(#SVGID_00000173857087895882577600000012570846758187778747_);}
	.st11{fill:url(#SVGID_00000165208200234238233180000014472349931031550114_);}
	.st12{fill:url(#SVGID_00000145041792950418726680000007834787520718411689_);}
</style>
<g>
	<linearGradient id="SVGID_1_" gradientUnits="userSpaceOnUse" x1="89.0268" y1="130.5678" x2="376.5182" y2="252.8189">
		<stop  offset="5.617980e-03" style="stop-color:#75461C"/>
		<stop  offset="0.1629" style="stop-color:#BD6E29"/>
		<stop  offset="0.2472" style="stop-color:#BD7C2A"/>
		<stop  offset="0.397" style="stop-color:#DEA826"/>
		<stop  offset="0.4928" style="stop-color:#FDF4A1"/>
		<stop  offset="0.5247" style="stop-color:#FDF392"/>
		<stop  offset="0.5506" style="stop-color:#FCF282"/>
		<stop  offset="0.6854" style="stop-color:#DD9827"/>
		<stop  offset="0.7921" style="stop-color:#BD7C2A"/>
		<stop  offset="0.8315" style="stop-color:#BD6E29"/>
		<stop  offset="0.874" style="stop-color:#AA6225"/>
		<stop  offset="0.955" style="stop-color:#8A4E1F"/>
		<stop  offset="1" style="stop-color:#7E461D"/>
	</linearGradient>
	<path class="st0" d="M129.4,142.8c-0.3,2.8-1.3,5.2-2.9,7.3c-1.6,2.1-3.7,3.7-6.3,4.9c-2.6,1.2-5.6,1.7-8.9,1.7
		c-3.7,0-6.9-0.7-9.7-2.1c-2.8-1.4-4.9-3.3-6.4-5.8c-1.5-2.5-2.3-5.4-2.3-8.7c0-3.3,0.8-6.2,2.3-8.7c1.5-2.5,3.7-4.4,6.4-5.8
		c2.8-1.4,6-2.1,9.7-2.1c3.3,0,6.3,0.6,8.9,1.7c2.6,1.2,4.7,2.8,6.3,4.8c1.6,2.1,2.5,4.5,2.9,7.3h-8.1c-0.3-1.4-0.9-2.7-1.7-3.7
		c-0.9-1-2-1.8-3.4-2.4c-1.4-0.6-3-0.8-4.9-0.8c-2.1,0-4,0.4-5.5,1.2c-1.5,0.8-2.7,1.9-3.5,3.3c-0.8,1.4-1.2,3.2-1.2,5.1
		c0,2,0.4,3.7,1.2,5.1c0.8,1.4,2,2.6,3.5,3.3c1.5,0.8,3.4,1.2,5.5,1.2c1.8,0,3.5-0.3,4.9-0.8c1.4-0.5,2.5-1.3,3.4-2.3
		c0.9-1,1.4-2.3,1.7-3.7H129.4z"/>
	
		<linearGradient id="SVGID_00000112601904937521101300000007841252965869234837_" gradientUnits="userSpaceOnUse" x1="95.1362" y1="116.2006" x2="382.6277" y2="238.4516">
		<stop  offset="5.617980e-03" style="stop-color:#75461C"/>
		<stop  offset="0.1629" style="stop-color:#BD6E29"/>
		<stop  offset="0.2472" style="stop-color:#BD7C2A"/>
		<stop  offset="0.397" style="stop-color:#DEA826"/>
		<stop  offset="0.4928" style="stop-color:#FDF4A1"/>
		<stop  offset="0.5247" style="stop-color:#FDF392"/>
		<stop  offset="0.5506" style="stop-color:#FCF282"/>
		<stop  offset="0.6854" style="stop-color:#DD9827"/>
		<stop  offset="0.7921" style="stop-color:#BD7C2A"/>
		<stop  offset="0.8315" style="stop-color:#BD6E29"/>
		<stop  offset="0.874" style="stop-color:#AA6225"/>
		<stop  offset="0.955" style="stop-color:#8A4E1F"/>
		<stop  offset="1" style="stop-color:#7E461D"/>
	</linearGradient>
	<path style="fill:url(#SVGID_00000112601904937521101300000007841252965869234837_);" d="M151.2,156.7c-3.7,0-7-0.7-9.8-2.1
		c-2.8-1.4-5-3.3-6.6-5.8c-1.6-2.5-2.3-5.4-2.3-8.7c0-3.3,0.8-6.2,2.3-8.7c1.6-2.5,3.8-4.4,6.6-5.8c2.8-1.4,6.1-2.1,9.8-2.1
		s7,0.7,9.8,2.1c2.8,1.4,5,3.3,6.6,5.8c1.6,2.5,2.4,5.4,2.4,8.7c0,3.3-0.8,6.2-2.4,8.7c-1.6,2.5-3.8,4.4-6.6,5.8
		C158.2,156,154.9,156.7,151.2,156.7z M151.2,149.5c2.2,0,4.1-0.4,5.7-1.1c1.6-0.8,2.8-1.8,3.7-3.3c0.9-1.4,1.3-3.1,1.3-5.1
		s-0.4-3.6-1.3-5.1c-0.9-1.4-2.1-2.5-3.7-3.3c-1.6-0.8-3.5-1.1-5.7-1.1c-2.2,0-4.1,0.4-5.7,1.1c-1.6,0.8-2.8,1.8-3.7,3.3
		c-0.9,1.4-1.3,3.1-1.3,5.1s0.4,3.6,1.3,5.1c0.9,1.4,2.1,2.5,3.7,3.3C147.1,149.1,149,149.5,151.2,149.5z"/>
	
		<linearGradient id="SVGID_00000158716305125084289630000004836848329096786316_" gradientUnits="userSpaceOnUse" x1="101.641" y1="100.9036" x2="389.1324" y2="223.1546">
		<stop  offset="5.617980e-03" style="stop-color:#75461C"/>
		<stop  offset="0.1629" style="stop-color:#BD6E29"/>
		<stop  offset="0.2472" style="stop-color:#BD7C2A"/>
		<stop  offset="0.397" style="stop-color:#DEA826"/>
		<stop  offset="0.4928" style="stop-color:#FDF4A1"/>
		<stop  offset="0.5247" style="stop-color:#FDF392"/>
		<stop  offset="0.5506" style="stop-color:#FCF282"/>
		<stop  offset="0.6854" style="stop-color:#DD9827"/>
		<stop  offset="0.7921" style="stop-color:#BD7C2A"/>
		<stop  offset="0.8315" style="stop-color:#BD6E29"/>
		<stop  offset="0.874" style="stop-color:#AA6225"/>
		<stop  offset="0.955" style="stop-color:#8A4E1F"/>
		<stop  offset="1" style="stop-color:#7E461D"/>
	</linearGradient>
	<path style="fill:url(#SVGID_00000158716305125084289630000004836848329096786316_);" d="M171,124.1h32.9v7.1H171V124.1z
		 M183.4,127.7h8V156h-8V127.7z"/>
	
		<linearGradient id="SVGID_00000049212140156958263430000015357877875086638471_" gradientUnits="userSpaceOnUse" x1="105.4293" y1="91.9949" x2="392.9207" y2="214.2459">
		<stop  offset="5.617980e-03" style="stop-color:#75461C"/>
		<stop  offset="0.1629" style="stop-color:#BD6E29"/>
		<stop  offset="0.2472" style="stop-color:#BD7C2A"/>
		<stop  offset="0.397" style="stop-color:#DEA826"/>
		<stop  offset="0.4928" style="stop-color:#FDF4A1"/>
		<stop  offset="0.5247" style="stop-color:#FDF392"/>
		<stop  offset="0.5506" style="stop-color:#FCF282"/>
		<stop  offset="0.6854" style="stop-color:#DD9827"/>
		<stop  offset="0.7921" style="stop-color:#BD7C2A"/>
		<stop  offset="0.8315" style="stop-color:#BD6E29"/>
		<stop  offset="0.874" style="stop-color:#AA6225"/>
		<stop  offset="0.955" style="stop-color:#8A4E1F"/>
		<stop  offset="1" style="stop-color:#7E461D"/>
	</linearGradient>
	<path style="fill:url(#SVGID_00000049212140156958263430000015357877875086638471_);" d="M225.4,124.1c2.6,0,4.9,0.4,6.7,1.3
		c1.9,0.9,3.3,2.1,4.3,3.8c1,1.6,1.5,3.5,1.5,5.7c0,2.2-0.5,4-1.5,5.7c-1,1.6-2.5,2.9-4.3,3.8c-1.9,0.9-4.1,1.3-6.7,1.3h-14v-6.5
		H225c1.5,0,2.7-0.4,3.6-1.1c0.9-0.8,1.3-1.8,1.3-3.1c0-1.3-0.4-2.4-1.3-3.1c-0.9-0.8-2.1-1.1-3.6-1.1h-12.8l3.6-3.7V156h-8v-31.9
		H225.4z"/>
	
		<linearGradient id="SVGID_00000086659649132337906690000004069907101110133650_" gradientUnits="userSpaceOnUse" x1="112.0772" y1="76.3614" x2="399.5686" y2="198.6124">
		<stop  offset="5.617980e-03" style="stop-color:#75461C"/>
		<stop  offset="0.1629" style="stop-color:#BD6E29"/>
		<stop  offset="0.2472" style="stop-color:#BD7C2A"/>
		<stop  offset="0.397" style="stop-color:#DEA826"/>
		<stop  offset="0.4928" style="stop-color:#FDF4A1"/>
		<stop  offset="0.5247" style="stop-color:#FDF392"/>
		<stop  offset="0.5506" style="stop-color:#FCF282"/>
		<stop  offset="0.6854" style="stop-color:#DD9827"/>
		<stop  offset="0.7921" style="stop-color:#BD7C2A"/>
		<stop  offset="0.8315" style="stop-color:#BD6E29"/>
		<stop  offset="0.874" style="stop-color:#AA6225"/>
		<stop  offset="0.955" style="stop-color:#8A4E1F"/>
		<stop  offset="1" style="stop-color:#7E461D"/>
	</linearGradient>
	<path style="fill:url(#SVGID_00000086659649132337906690000004069907101110133650_);" d="M253.8,151.5l-15.9-27.4h8.8l12.7,22
		L253.8,151.5z M248.3,156l5.6-9.7h0.1l12.7-22.2h8.7L257,156H248.3z"/>
	
		<linearGradient id="SVGID_00000001657410574241626780000000566349121979993224_" gradientUnits="userSpaceOnUse" x1="115.3787" y1="68.5974" x2="402.8701" y2="190.8484">
		<stop  offset="5.617980e-03" style="stop-color:#75461C"/>
		<stop  offset="0.1629" style="stop-color:#BD6E29"/>
		<stop  offset="0.2472" style="stop-color:#BD7C2A"/>
		<stop  offset="0.397" style="stop-color:#DEA826"/>
		<stop  offset="0.4928" style="stop-color:#FDF4A1"/>
		<stop  offset="0.5247" style="stop-color:#FDF392"/>
		<stop  offset="0.5506" style="stop-color:#FCF282"/>
		<stop  offset="0.6854" style="stop-color:#DD9827"/>
		<stop  offset="0.7921" style="stop-color:#BD7C2A"/>
		<stop  offset="0.8315" style="stop-color:#BD6E29"/>
		<stop  offset="0.874" style="stop-color:#AA6225"/>
		<stop  offset="0.955" style="stop-color:#8A4E1F"/>
		<stop  offset="1" style="stop-color:#7E461D"/>
	</linearGradient>
	<path style="fill:url(#SVGID_00000001657410574241626780000000566349121979993224_);" d="M272.4,162.5v-13.5h6.4l2.9,0.1h22.6
		l2-0.1h8.9v13.5h-7.5V156h-27.8v6.5H272.4z M279.1,124.1h30.5v29.5h-8v-26.2l3.6,3.7h-21.8l3.3-2.7c0.2,1.4,0.3,2.7,0.4,4
		c0.1,1.3,0.1,2.5,0.1,3.7c0,3.4-0.3,6.3-0.9,8.6c-0.6,2.3-1.4,4.1-2.5,5.3c-1.1,1.2-2.5,1.8-4.1,1.8l-3.4-2.8
		c1.2-1.3,2-3.2,2.6-5.6c0.6-2.4,0.9-5.4,0.9-8.9c0-1.6-0.1-3.3-0.2-5C279.4,127.7,279.3,125.9,279.1,124.1z"/>
	
		<linearGradient id="SVGID_00000057828780289765005440000011921695760854772883_" gradientUnits="userSpaceOnUse" x1="123.458" y1="49.5977" x2="410.9494" y2="171.8487">
		<stop  offset="5.617980e-03" style="stop-color:#75461C"/>
		<stop  offset="0.1629" style="stop-color:#BD6E29"/>
		<stop  offset="0.2472" style="stop-color:#BD7C2A"/>
		<stop  offset="0.397" style="stop-color:#DEA826"/>
		<stop  offset="0.4928" style="stop-color:#FDF4A1"/>
		<stop  offset="0.5247" style="stop-color:#FDF392"/>
		<stop  offset="0.5506" style="stop-color:#FCF282"/>
		<stop  offset="0.6854" style="stop-color:#DD9827"/>
		<stop  offset="0.7921" style="stop-color:#BD7C2A"/>
		<stop  offset="0.8315" style="stop-color:#BD6E29"/>
		<stop  offset="0.874" style="stop-color:#AA6225"/>
		<stop  offset="0.955" style="stop-color:#8A4E1F"/>
		<stop  offset="1" style="stop-color:#7E461D"/>
	</linearGradient>
	<path style="fill:url(#SVGID_00000057828780289765005440000011921695760854772883_);" d="M319.4,124.1h8V156h-8V124.1z
		 M323.9,136.3h24.3v7.1h-24.3V136.3z M344.8,124.1h8V156h-8V124.1z"/>
	
		<linearGradient id="SVGID_00000117646295747513826030000009548718025985360776_" gradientUnits="userSpaceOnUse" x1="129.66" y1="35.0127" x2="417.1515" y2="157.2637">
		<stop  offset="5.617980e-03" style="stop-color:#75461C"/>
		<stop  offset="0.1629" style="stop-color:#BD6E29"/>
		<stop  offset="0.2472" style="stop-color:#BD7C2A"/>
		<stop  offset="0.397" style="stop-color:#DEA826"/>
		<stop  offset="0.4928" style="stop-color:#FDF4A1"/>
		<stop  offset="0.5247" style="stop-color:#FDF392"/>
		<stop  offset="0.5506" style="stop-color:#FCF282"/>
		<stop  offset="0.6854" style="stop-color:#DD9827"/>
		<stop  offset="0.7921" style="stop-color:#BD7C2A"/>
		<stop  offset="0.8315" style="stop-color:#BD6E29"/>
		<stop  offset="0.874" style="stop-color:#AA6225"/>
		<stop  offset="0.955" style="stop-color:#8A4E1F"/>
		<stop  offset="1" style="stop-color:#7E461D"/>
	</linearGradient>
	<path style="fill:url(#SVGID_00000117646295747513826030000009548718025985360776_);" d="M359.1,156v-31.9h7.9v27.7l-2.3-0.5
		l19.1-27.3h10.5V156h-7.9v-28.2l2.3,0.5L369.3,156H359.1z"/>
	
		<linearGradient id="SVGID_00000040566300471744763850000010897770473606278275_" gradientUnits="userSpaceOnUse" x1="135.8487" y1="20.4591" x2="423.3401" y2="142.7102">
		<stop  offset="5.617980e-03" style="stop-color:#75461C"/>
		<stop  offset="0.1629" style="stop-color:#BD6E29"/>
		<stop  offset="0.2472" style="stop-color:#BD7C2A"/>
		<stop  offset="0.397" style="stop-color:#DEA826"/>
		<stop  offset="0.4928" style="stop-color:#FDF4A1"/>
		<stop  offset="0.5247" style="stop-color:#FDF392"/>
		<stop  offset="0.5506" style="stop-color:#FCF282"/>
		<stop  offset="0.6854" style="stop-color:#DD9827"/>
		<stop  offset="0.7921" style="stop-color:#BD7C2A"/>
		<stop  offset="0.8315" style="stop-color:#BD6E29"/>
		<stop  offset="0.874" style="stop-color:#AA6225"/>
		<stop  offset="0.955" style="stop-color:#8A4E1F"/>
		<stop  offset="1" style="stop-color:#7E461D"/>
	</linearGradient>
	<path style="fill:url(#SVGID_00000040566300471744763850000010897770473606278275_);" d="M400.4,156v-31.9h8v25.4l-2.2-1.6
		l18.9-23.8h8.5l-26,31.9H400.4z M415.7,140.5l5.8-5l12.6,20.4H425L415.7,140.5z"/>
	
		<linearGradient id="SVGID_00000094590244246195256510000008537447798880516510_" gradientUnits="userSpaceOnUse" x1="73.7849" y1="166.4113" x2="361.2763" y2="288.6624">
		<stop  offset="5.617980e-03" style="stop-color:#75461C"/>
		<stop  offset="0.1629" style="stop-color:#BD6E29"/>
		<stop  offset="0.2472" style="stop-color:#BD7C2A"/>
		<stop  offset="0.397" style="stop-color:#DEA826"/>
		<stop  offset="0.4928" style="stop-color:#FDF4A1"/>
		<stop  offset="0.5247" style="stop-color:#FDF392"/>
		<stop  offset="0.5506" style="stop-color:#FCF282"/>
		<stop  offset="0.6854" style="stop-color:#DD9827"/>
		<stop  offset="0.7921" style="stop-color:#BD7C2A"/>
		<stop  offset="0.8315" style="stop-color:#BD6E29"/>
		<stop  offset="0.874" style="stop-color:#AA6225"/>
		<stop  offset="0.955" style="stop-color:#8A4E1F"/>
		<stop  offset="1" style="stop-color:#7E461D"/>
	</linearGradient>
	<path style="fill:url(#SVGID_00000094590244246195256510000008537447798880516510_);" d="M118.1,164.3v7.1H98.8l3.6-3.6v28.4h-8
		v-31.9H118.1z"/>
	
		<linearGradient id="SVGID_00000103944528236948936540000007321353988924949408_" gradientUnits="userSpaceOnUse" x1="78.6285" y1="155.021" x2="366.1199" y2="277.2721">
		<stop  offset="5.617980e-03" style="stop-color:#75461C"/>
		<stop  offset="0.1629" style="stop-color:#BD6E29"/>
		<stop  offset="0.2472" style="stop-color:#BD7C2A"/>
		<stop  offset="0.397" style="stop-color:#DEA826"/>
		<stop  offset="0.4928" style="stop-color:#FDF4A1"/>
		<stop  offset="0.5247" style="stop-color:#FDF392"/>
		<stop  offset="0.5506" style="stop-color:#FCF282"/>
		<stop  offset="0.6854" style="stop-color:#DD9827"/>
		<stop  offset="0.7921" style="stop-color:#BD7C2A"/>
		<stop  offset="0.8315" style="stop-color:#BD6E29"/>
		<stop  offset="0.874" style="stop-color:#AA6225"/>
		<stop  offset="0.955" style="stop-color:#8A4E1F"/>
		<stop  offset="1" style="stop-color:#7E461D"/>
	</linearGradient>
	<path style="fill:url(#SVGID_00000103944528236948936540000007321353988924949408_);" d="M137.9,196.9c-3.7,0-7-0.7-9.8-2.1
		c-2.8-1.4-5-3.3-6.6-5.8c-1.6-2.5-2.3-5.4-2.3-8.7c0-3.3,0.8-6.2,2.3-8.7c1.6-2.5,3.8-4.4,6.6-5.8c2.8-1.4,6.1-2.1,9.8-2.1
		s7,0.7,9.8,2.1c2.8,1.4,5,3.3,6.6,5.8c1.6,2.5,2.4,5.4,2.4,8.7c0,3.3-0.8,6.2-2.4,8.7c-1.6,2.5-3.8,4.4-6.6,5.8
		C144.9,196.2,141.6,196.9,137.9,196.9z M137.9,189.7c2.2,0,4.1-0.4,5.7-1.1c1.6-0.8,2.8-1.8,3.7-3.3c0.9-1.4,1.3-3.1,1.3-5.1
		s-0.4-3.6-1.3-5.1c-0.9-1.4-2.1-2.5-3.7-3.3c-1.6-0.8-3.5-1.1-5.7-1.1c-2.2,0-4.1,0.4-5.7,1.1c-1.6,0.8-2.8,1.8-3.7,3.3
		c-0.9,1.4-1.3,3.1-1.3,5.1s0.4,3.6,1.3,5.1c0.9,1.4,2.1,2.5,3.7,3.3C133.8,189.3,135.7,189.7,137.9,189.7z"/>
	
		<linearGradient id="SVGID_00000066485164889876439570000008825946758582448029_" gradientUnits="userSpaceOnUse" x1="83.3923" y1="143.818" x2="370.8838" y2="266.0691">
		<stop  offset="5.617980e-03" style="stop-color:#75461C"/>
		<stop  offset="0.1629" style="stop-color:#BD6E29"/>
		<stop  offset="0.2472" style="stop-color:#BD7C2A"/>
		<stop  offset="0.397" style="stop-color:#DEA826"/>
		<stop  offset="0.4928" style="stop-color:#FDF4A1"/>
		<stop  offset="0.5247" style="stop-color:#FDF392"/>
		<stop  offset="0.5506" style="stop-color:#FCF282"/>
		<stop  offset="0.6854" style="stop-color:#DD9827"/>
		<stop  offset="0.7921" style="stop-color:#BD7C2A"/>
		<stop  offset="0.8315" style="stop-color:#BD6E29"/>
		<stop  offset="0.874" style="stop-color:#AA6225"/>
		<stop  offset="0.955" style="stop-color:#8A4E1F"/>
		<stop  offset="1" style="stop-color:#7E461D"/>
	</linearGradient>
	<path style="fill:url(#SVGID_00000066485164889876439570000008825946758582448029_);" d="M158,202.6v-13.5h6.4l2.9,0.1h22.6l2-0.1
		h8.9v13.5h-7.5v-6.5h-27.8v6.5H158z M164.7,164.3h30.5v29.5h-8v-26.2l3.6,3.7H169l3.3-2.7c0.2,1.4,0.3,2.7,0.4,4
		c0.1,1.3,0.1,2.5,0.1,3.7c0,3.4-0.3,6.3-0.9,8.6c-0.6,2.3-1.4,4.1-2.5,5.3c-1.1,1.2-2.5,1.8-4.1,1.8l-3.4-2.8
		c1.2-1.3,2-3.2,2.6-5.6c0.6-2.4,0.9-5.4,0.9-8.9c0-1.6-0.1-3.3-0.2-5C165,167.9,164.9,166.1,164.7,164.3z"/>
	
		<linearGradient id="SVGID_00000138539749778808758150000012892720163005113533_" gradientUnits="userSpaceOnUse" x1="90.3611" y1="127.43" x2="377.8525" y2="249.681">
		<stop  offset="5.617980e-03" style="stop-color:#75461C"/>
		<stop  offset="0.1629" style="stop-color:#BD6E29"/>
		<stop  offset="0.2472" style="stop-color:#BD7C2A"/>
		<stop  offset="0.397" style="stop-color:#DEA826"/>
		<stop  offset="0.4928" style="stop-color:#FDF4A1"/>
		<stop  offset="0.5247" style="stop-color:#FDF392"/>
		<stop  offset="0.5506" style="stop-color:#FCF282"/>
		<stop  offset="0.6854" style="stop-color:#DD9827"/>
		<stop  offset="0.7921" style="stop-color:#BD7C2A"/>
		<stop  offset="0.8315" style="stop-color:#BD6E29"/>
		<stop  offset="0.874" style="stop-color:#AA6225"/>
		<stop  offset="0.955" style="stop-color:#8A4E1F"/>
		<stop  offset="1" style="stop-color:#7E461D"/>
	</linearGradient>
	<path style="fill:url(#SVGID_00000138539749778808758150000012892720163005113533_);" d="M227.1,164.3l14.7,31.9h-8.6l-12.6-28.5
		h2.5l-12.6,28.5h-8.6l14.8-31.9H227.1z M210.7,189.7v-6.5h22v6.5H210.7z"/>
</g>
</svg>
